<?xml version="1.0" standalone="no"?>
<!DOCTYPE svg PUBLIC "-//W3C//DTD SVG 20010904//EN"
 "http://www.w3.org/TR/2001/REC-SVG-20010904/DTD/svg10.dtd">
<svg version="1.0" xmlns="http://www.w3.org/2000/svg"
 width="162.000000pt" height="240.000000pt" viewBox="0 0 162.000000 240.000000"
 preserveAspectRatio="xMidYMid meet">

<g transform="translate(0.000000,240.000000) scale(0.100000,-0.100000)"
fill="#000000" stroke="none">
<path d="M661 1934 c-167 -45 -297 -184 -345 -367 -21 -81 -34 -186 -46 -372
-12 -192 -28 -288 -77 -457 -30 -104 -34 -132 -26 -151 18 -39 55 -41 154 -11
84 26 89 26 114 10 14 -9 39 -36 55 -59 52 -72 70 -87 105 -87 48 0 79 14 128
59 71 66 100 64 185 -10 91 -79 156 -74 223 17 55 75 77 84 137 55 25 -13 70
-25 98 -28 43 -5 55 -2 73 16 26 26 26 46 2 119 -34 100 -42 178 -51 482 -9
327 -18 393 -76 518 -42 93 -125 182 -208 222 -113 56 -324 77 -445 44z m272
-19 c61 -9 119 -25 154 -42 77 -37 160 -122 200 -203 58 -119 64 -159 73 -470
9 -296 24 -439 60 -549 19 -61 19 -65 3 -84 -21 -23 -74 -18 -139 13 -71 35
-91 29 -164 -50 -85 -91 -108 -93 -195 -20 -92 78 -137 79 -223 5 -90 -76
-128 -72 -185 18 -60 93 -93 104 -204 66 -34 -11 -74 -19 -90 -17 -39 4 -41
40 -9 142 40 125 65 258 76 406 21 270 30 356 45 415 40 155 127 270 248 330
115 56 187 65 350 40z"/>
<path d="M575 1520 c-26 -29 -30 -107 -8 -150 36 -70 93 -40 100 53 7 90 -47
147 -92 97z"/>
<path d="M1045 1510 c-37 -41 -27 -167 16 -190 66 -36 104 113 47 185 -23 30
-39 31 -63 5z"/>
</g>
</svg>
